PathFileType	4	(X/Y/Z)	D:\																																																																			
DataRate	CameraRate	NumFrames	NumMarkers	Units	OrigDataRate	OrigDataStartFrame	OrigNumFrames																																																															
240	240	11	21	mm	240	1	833																																																															
Frame#	Time	Top.Head			Front.Head			Rear.Head			R.Shoulder			R.Elbow			R.Wrist			L.Shoulder			L.Elbow			L.Wrist			Offset1			R.ASIS			L.ASIS			V.Sacral			R.Knee			R.Ankle			R.Toe			R.Heel			L.Knee			L.Ankle			L.Toe			L.Heel			V_Head			V_Pelvis		
		X1	Y1	Z1	X2	Y2	Z2	X3	Y3	Z3	X4	Y4	Z4	X5	Y5	Z5	X6	Y6	Z6	X7	Y7	Z7	X8	Y8	Z8	X9	Y9	Z9	X10	Y10	Z10	X11	Y11	Z11	X12	Y12	Z12	X13	Y13	Z13	X14	Y14	Z14	X15	Y15	Z15	X16	Y16	Z16	X17	Y17	Z17	X18	Y18	Z18	X19	Y19	Z19	X20	Y20	Z20	X21	Y21	Z21	X22	Y22	Z22	X23	Y23	Z23
																																																																						
1	0	457.10574	-244.97197	1749.19214	448.13699	-130.65421	1708.43823	452.85373	-319.51718	1688.09119	618.14307	-213.89734	1416.36938	613.48285	-46.18277	1138.56702	409.34784	-15.89706	1301.71484	257.6225	-230.4637	1450.03748	235.15187	-57.55937	1160.97925	450.9296	-59.13679	1302.05054	536.16528	-329.17813	1261.22852	603.38141	-197.31802	915.55707	252.24953	-170.46329	909.62384	439.77243	-323.51123	934.73822	649.35266	-229.95216	437.2388	620.24518	-261.68854	93.77	627.40924	-51.32471	47.47619	556.78748	-323.69028	42.46065	232.60587	-186.37474	473.14783	233.25832	-252.17174	98.86203	231.7101	-60.61824	51.93404	286.8158	-323.34134	44.54295	450.49536	-225.08569	1698.26465	422.32513	-253.25906	923.53943
2	0.004	457.05414	-244.92155	1749.18103	448.11905	-130.63257	1708.45154	452.76495	-319.5502	1688.10693	618.06232	-213.92822	1416.35388	613.44537	-46.16603	1138.57214	409.32437	-15.87265	1301.70313	257.54541	-230.39726	1450.03308	235.14845	-57.51313	1160.96948	450.91165	-59.0475	1302.06299	536.13666	-329.17273	1261.24792	603.36481	-197.29265	915.57733	252.21642	-170.40987	909.62701	439.73126	-323.46594	934.70557	649.32318	-229.92258	437.23438	620.24323	-261.72055	93.80625	627.41595	-51.31743	47.48471	556.77832	-323.69675	42.4758	232.63963	-186.29878	473.13889	233.27602	-252.17438	98.8684	231.71278	-60.62305	51.93967	286.81845	-323.34357	44.53906	450.44199	-225.09138	1698.27917	422.29431	-253.22636	923.52997
3	0.008	456.99872	-244.87241	1749.17102	448.10086	-130.61476	1708.46301	452.67892	-319.57617	1688.11987	617.98199	-213.95569	1416.33936	613.41022	-46.15006	1138.57739	409.29877	-15.84727	1301.69202	257.46786	-230.33005	1450.02783	235.1432	-57.46649	1160.95996	450.89041	-58.96393	1302.07434	536.1037	-329.16489	1261.26733	603.34814	-197.27132	915.5957	252.18481	-170.34846	909.62811	439.68951	-323.42343	934.67456	649.29407	-229.89297	437.22949	620.24164	-261.74832	93.8378	627.42285	-51.31172	47.49255	556.77039	-323.70248	42.48981	232.67261	-186.22043	473.12726	233.2924	-252.17662	98.87446	231.71495	-60.62694	51.94424	286.82135	-323.34525	44.53579	450.38989	-225.09546	1698.29138	422.26181	-253.19115	923.51984
4	0.013	456.93607	-244.82597	1749.16284	448.0827	-130.60457	1708.47095	452.59647	-319.58801	1688.12805	617.9032	-213.97601	1416.32727	613.37939	-46.13567	1138.58252	409.26959	-15.82052	1301.68286	257.38956	-230.26245	1450.02063	235.13519	-57.41781	1160.95007	450.86359	-58.88882	1302.08423	536.06189	-329.15353	1261.28687	603.33051	-197.2569	915.61084	252.15564	-170.27242	909.62598	439.64606	-323.38538	934.64612	649.26611	-229.86382	437.22412	620.24048	-261.76999	93.86237	627.42999	-51.30859	47.49932	556.76471	-323.70685	42.50175	232.70357	-186.13666	473.11182	233.30623	-252.17848	98.87973	231.71646	-60.62925	51.94709	286.82458	-323.34598	44.53377	450.3396	-225.09628	1698.29944	422.2258	-253.15105	923.50879
5	0.017	456.86325	-244.78409	1749.15747	448.06464	-130.60449	1708.47424	452.51587	-319.57953	1688.12976	617.82782	-213.98618	1416.31909	613.35388	-46.1231	1138.5874	409.23676	-15.79189	1301.67688	257.31024	-230.19586	1450.01086	235.12407	-57.3646	1160.93909	450.83069	-58.82196	1302.09277	536.00726	-329.13971	1261.30591	603.31061	-197.2509	915.62244	252.12914	-170.17822	909.62079	439.59924	-323.35132	934.62073	649.24048	-229.83607	437.21848	620.23987	-261.78574	93.88	627.43738	-51.30833	47.50479	556.76172	-323.70953	42.51123	232.73056	-186.04431	473.09326	233.31619	-252.18005	98.88367	231.7173	-60.62975	51.94804	286.82785	-323.34558	44.53329	450.29025	-225.09201	1698.302	422.18469	-253.10466	923.49677
6	0.021	456.77853	-244.74931	1749.15503	448.04584	-130.61377	1708.4729	452.43362	-319.54709	1688.12476	617.7572	-213.98524	1416.31567	613.3338	-46.1117	1138.59192	409.20139	-15.75968	1301.67542	257.22986	-230.13188	1449.99805	235.10959	-57.30484	1160.927	450.79306	-58.76206	1302.10107	535.93732	-329.12543	1261.32349	603.2868	-197.25371	915.63055	252.10527	-170.06715	909.61359	439.5473	-323.3187	934.59814	649.21802	-229.81076	437.21295	620.2395	-261.79651	93.89172	627.44501	-51.31041	47.5088	556.76123	-323.71069	42.51858	232.7511	-185.94125	473.07382	233.32124	-252.18098	98.88596	231.71739	-60.62877	51.94731	286.83044	-323.34439	44.5341	450.23975	-225.08043	1698.29883	422.13797	-253.05258	923.48431
7	0.025	456.68259	-244.72433	1749.1554	448.02411	-130.62695	1708.46802	452.34631	-319.49057	1688.1134	617.69159	-213.97437	1416.31702	613.3183	-46.10038	1138.59595	409.16525	-15.72189	1301.67944	257.1485	-230.07198	1449.98206	235.09161	-57.23812	1160.91443	450.75293	-58.70782	1302.11084	535.85272	-329.11212	1261.33923	603.25824	-197.26491	915.63531	252.08397	-169.9446	909.60541	439.4888	-323.28394	934.57794	649.19885	-229.78821	437.20767	620.23932	-261.80319	93.89872	627.4527	-51.31367	47.51123	556.76245	-323.71082	42.52445	232.76331	-185.82762	473.05627	233.3213	-252.18082	98.88665	231.71674	-60.62698	51.94547	286.83194	-323.34299	44.53558	450.18521	-225.05875	1698.29065	422.08624	-252.9971	923.47186
8	0.029	456.57825	-244.70944	1749.1582	447.99597	-130.63422	1708.46167	452.25195	-319.41318	1688.09668	617.63055	-213.95581	1416.32251	613.30609	-46.08828	1138.59937	409.13025	-15.67877	1301.68835	257.06686	-230.01724	1449.96301	235.07065	-57.16576	1160.90247	450.71213	-58.65788	1302.1239	535.75732	-329.1004	1261.35339	603.22485	-197.28305	915.6369	252.06502	-169.81686	909.59692	439.4223	-323.24408	934.55951	649.18237	-229.76791	437.20255	620.23907	-261.80682	93.90228	627.46002	-51.31703	47.51217	556.76416	-323.71045	42.52908	232.76736	-185.70662	473.04276	233.31757	-252.17931	98.88621	231.71559	-60.62511	51.94327	286.83261	-323.34164	44.53718	450.12396	-225.0237	1698.27917	422.03098	-252.94073	923.45984
9	0.033	456.46893	-244.70134	1749.16199	447.95816	-130.62552	1708.45593	452.1499	-319.32016	1688.07568	617.57336	-213.93221	1416.33081	613.29602	-46.07524	1138.60229	409.09735	-15.6337	1301.70056	256.98645	-229.96806	1449.94104	235.04829	-57.09024	1160.89185	450.67157	-58.61135	1302.14087	535.6571	-329.09009	1261.36609	603.18774	-197.30556	915.63599	252.04791	-169.68845	909.58844	439.34644	-323.19693	934.54242	649.16754	-229.74883	437.19748	620.23901	-261.80835	93.90346	627.46625	-51.31979	47.51186	556.76544	-323.70996	42.53205	232.76646	-185.58475	473.03354	233.312	-252.17639	98.8854	231.71436	-60.6238	51.94139	286.83295	-323.34064	44.53848	450.05405	-224.97284	1698.26575	421.97385	-252.88477	923.44849
10	0.038	456.35678	-244.69502	1749.16553	447.90991	-130.59735	1708.45154	452.04077	-319.21762	1688.05286	617.5191	-213.90569	1416.34106	613.28735	-46.06209	1138.60449	409.06662	-15.59126	1301.71375	256.90878	-229.92401	1449.91663	235.02713	-57.01392	1160.88281	450.63138	-58.569	1302.16089	535.5578	-329.07965	1261.37744	603.14886	-197.32886	915.63385	252.03223	-169.56134	909.58081	439.26074	-323.1413	934.5271	649.1535	-229.73	437.19229	620.23926	-261.80841	93.90308	627.47083	-51.32147	47.51036	556.76575	-323.70959	42.53335	232.76537	-185.47021	473.02719	233.30664	-252.17247	98.88497	231.71327	-60.62342	51.94027	286.83295	-323.34006	44.53928	449.97534	-224.90749	1698.2522	421.91669	-252.82892	923.4386
11	0.042	456.24313	-244.68645	1749.16809	447.85403	-130.55659	1708.44824	451.92615	-319.11145	1688.03101	617.466	-213.87762	1416.35242	613.27979	-46.05024	1138.60571	409.03732	-15.5545	1301.72607	256.83423	-229.8838	1449.88953	235.00981	-56.93792	1160.87512	450.59058	-58.53368	1302.18164	535.46332	-329.06638	1261.38672	603.11023	-197.3494	915.63184	252.0181	-169.43639	909.57477	439.16617	-323.07773	934.51453	649.13983	-229.71117	437.1871	620.23993	-261.80771	93.9019	627.47351	-51.3214	47.50764	556.76514	-323.70947	42.53415	232.76822	-185.36961	473.02133	233.30287	-252.16844	98.8853	231.71248	-60.62412	51.93999	286.83228	-323.34003	44.53953	449.89011	-224.83403	1698.23962	421.86145	-252.77228	923.43109
